<mxfile host="app.diagrams.net" modified="2023-05-16T15:23:06.861Z" agent="Mozilla/5.0 (Windows NT 10.0; Win64; x64) AppleWebKit/537.36 (KHTML, like Gecko) Chrome/113.0.0.0 Safari/537.36" etag="z47fXYjKAx0b2fYrKTET" version="21.3.0" type="github">
  <diagram name="Page-1" id="74e2e168-ea6b-b213-b513-2b3c1d86103e">
    <mxGraphModel dx="2603" dy="1448" grid="1" gridSize="10" guides="1" tooltips="1" connect="1" arrows="1" fold="1" page="1" pageScale="1" pageWidth="1100" pageHeight="850" background="none" math="0" shadow="0">
      <root>
        <mxCell id="0" />
        <mxCell id="1" parent="0" />
        <mxCell id="77e6c97f196da883-1" value="Pool" style="swimlane;html=1;childLayout=stackLayout;startSize=20;rounded=0;shadow=0;labelBackgroundColor=none;strokeWidth=1;fontFamily=Verdana;fontSize=8;align=center;" parent="1" vertex="1">
          <mxGeometry x="70" y="40" width="2280" height="840" as="geometry" />
        </mxCell>
        <mxCell id="77e6c97f196da883-2" value="dispather" style="swimlane;html=1;startSize=20;" parent="77e6c97f196da883-1" vertex="1">
          <mxGeometry y="20" width="340" height="820" as="geometry" />
        </mxCell>
        <mxCell id="77e6c97f196da883-3" value="taskmaneger" style="swimlane;html=1;startSize=20;" parent="77e6c97f196da883-1" vertex="1">
          <mxGeometry x="340" y="20" width="550" height="820" as="geometry" />
        </mxCell>
        <mxCell id="77e6c97f196da883-4" value="vehicleController" style="swimlane;html=1;startSize=20;" parent="77e6c97f196da883-1" vertex="1">
          <mxGeometry x="890" y="20" width="490" height="820" as="geometry" />
        </mxCell>
        <mxCell id="77e6c97f196da883-5" value="vehilceMessage" style="swimlane;html=1;startSize=20;" parent="77e6c97f196da883-1" vertex="1">
          <mxGeometry x="1380" y="20" width="180" height="820" as="geometry">
            <mxRectangle x="660" y="20" width="40" height="730" as="alternateBounds" />
          </mxGeometry>
        </mxCell>
      </root>
    </mxGraphModel>
  </diagram>
</mxfile>
